<svg xmlns="http://www.w3.org/2000/svg" width="285" height="85" fill="none" viewBox="0 0 285 85"><path fill="url(#paint0_linear)" d="M211.882 24.215a5 5 0 012.505-4.333l31.458-18.12a5 5 0 014.991 0l31.458 18.12a5 5 0 012.505 4.333v36.171a5 5 0 01-2.505 4.333l-31.458 18.12a5 5 0 01-4.991 0l-31.458-18.12a5 5 0 01-2.505-4.333V24.215z"/><mask id="a" width="74" height="83" x="211" y="1" maskUnits="userSpaceOnUse"><path fill="url(#paint1_linear)" d="M211.882 24.215a5 5 0 012.505-4.333l31.458-18.12a5 5 0 014.991 0l31.458 18.12a5 5 0 012.505 4.333v36.171a5 5 0 01-2.505 4.333l-31.458 18.12a5 5 0 01-4.991 0l-31.458-18.12a5 5 0 01-2.505-4.333V24.215z"/></mask><g mask="url(#a)"><path fill="#0B697C" fill-rule="evenodd" d="M266.384 52.614l-18.147 10.563-18.145-10.563V73.8l18.145-10.624L230.092 73.8l18.145 10.56v.001L266.384 73.8l-18.147-10.624L266.384 73.8V52.614zm18.147 10.563l-18.147-10.563V73.8l18.147-10.624zm-54.439-10.563l-18.147 10.563L230.092 73.8V52.614z" clip-rule="evenodd"/><path fill="#1D99A8" fill-rule="evenodd" d="M266.384 31.614l-18.147 10.562-18.145-10.562V52.8l18.145-10.624L230.092 52.8l18.145 10.56v.001L266.384 52.8l-18.147-10.624L266.384 52.8V31.614zm18.147 10.563l-18.147-10.563V52.8l18.147-10.624zm-54.439-10.563l-18.147 10.563L230.092 52.8V31.614z" clip-rule="evenodd"/><path fill="#47E2E6" fill-rule="evenodd" d="M266.384 10.614l-18.147 10.563-18.145-10.563V31.8l18.145-10.624L230.092 31.8l18.145 10.56v.001L266.384 31.8l-18.147-10.624L266.384 31.8V10.614zm18.147 10.563l-18.147-10.563V31.8l18.147-10.624zm-54.439-10.563l-18.147 10.563L230.092 31.8V10.614z" clip-rule="evenodd"/><path fill="#fff" d="M226.301 76.982c-1.083 0-2.036-.075-2.858-.225a20.143 20.143 0 01-2.13-.392v-7.062c.598.15 1.233.28 1.906.392.635.112 1.326.169 2.074.169.971 0 1.849-.187 2.634-.561.822-.374 1.457-1.084 1.906-2.13.448-1.046.672-2.54.672-4.484V25.193h8.463v37.44c0 3.438-.541 6.203-1.625 8.295-1.046 2.13-2.522 3.662-4.428 4.596-1.905.972-4.11 1.458-6.614 1.458zm30.714-16.762c-2.651 0-5.084-.403-7.299-1.209-2.181-.839-3.926-2.063-5.234-3.674-1.309-1.61-1.963-3.557-1.963-5.839l.05-1.107h7.399l-.05.805c0 1.477.654 2.651 1.963 3.524 1.309.872 3.137 1.308 5.486 1.308 2.483 0 4.279-.319 5.386-.956 1.108-.671 1.661-1.56 1.661-2.668 0-.973-.369-1.778-1.107-2.416-.705-.671-1.611-1.191-2.718-1.56-1.074-.403-2.567-.873-4.48-1.41-2.718-.772-4.916-1.51-6.594-2.214a11.741 11.741 0 01-4.329-3.121c-1.208-1.41-1.812-3.255-1.812-5.537 0-3.154 1.275-5.554 3.826-7.198 2.55-1.644 5.939-2.466 10.167-2.466 3.994 0 7.249.855 9.765 2.567 2.551 1.678 3.826 4.211 3.826 7.6v.604h-7.249V34.8c0-1.275-.587-2.281-1.761-3.02-1.141-.738-2.702-1.107-4.681-1.107-2.114 0-3.742.285-4.883.856-1.107.57-1.661 1.359-1.661 2.365 0 .772.336 1.443 1.007 2.014.671.537 1.51.99 2.517 1.359 1.006.335 2.432.755 4.278 1.258 2.752.738 5 1.477 6.745 2.215a12.11 12.11 0 014.58 3.171c1.276 1.41 1.913 3.255 1.913 5.537 0 3.691-1.325 6.41-3.976 8.154-2.618 1.745-6.208 2.617-10.772 2.617z"/></g><path fill="#01293C" d="M29.378 49.18c-.693 7.118-6.178 11.503-13.87 11.503C4.982 60.683.19 53.566.19 43.079c0-10.295 4.98-17.667 15.004-17.667 10.338 0 14.31 7.054 14.31 16.333v1.525H4.098c.063 9.342 4.602 13.918 10.907 13.918 5.421 0 9.645-2.288 10.464-8.008h3.909zm-3.782-9.342c-.253-6.736-3.972-10.93-10.213-10.93-6.116 0-10.276 3.495-11.158 10.93h21.37zm14.302-26.819h3.782v47.028h-3.782V13.02zm35.878 41.563h-.126c-2.46 3.813-6.494 6.1-12.483 6.1-7.186 0-10.654-4.13-10.654-9.024 0-9.913 10.276-9.977 17.337-11.184 5.17-.827 5.926-1.144 5.926-3.623 0-4.576-2.71-7.944-8.636-7.944-5.485 0-8.196 2.098-9.079 8.008h-3.908c.756-7.436 4.98-11.503 13.112-11.503 7.628 0 12.293 3.75 12.293 12.392v22.243h-3.782v-5.465zm0-12.011c-8.511 2.287-19.48 1.016-19.48 8.58 0 3.685 3.09 6.036 7.376 6.036 7.06 0 12.104-4.32 12.104-11.12V42.57zm16.219 6.609c.63 6.037 4.287 8.007 9.898 8.007 4.602 0 7.69-1.779 7.69-6.037 0-9.977-20.3-2.542-20.3-16.078 0-5.339 3.972-9.66 11.348-9.66 7.061 0 11.663 3.75 12.041 11.503h-3.908c-.504-5.593-3.215-8.008-8.133-8.008-5.61 0-7.564 2.988-7.564 6.228 0 9.279 20.299 2.606 20.299 15.888 0 5.974-4.539 9.66-12.041 9.66-8.258 0-12.798-4.067-13.239-11.503h3.909zm30.662-19.701h-4.853v-3.432h4.853v-8.77h3.783v8.77h7.88v3.432h-7.88v22.37c0 3.75 1.828 5.338 4.602 5.338a16.261 16.261 0 003.278-.38v3.368c-1.257.32-2.548.491-3.845.508-4.287 0-7.818-2.542-7.818-8.262V29.479zm15.712 13.601c0-10.55 6.682-17.668 16.391-17.668 9.708 0 16.39 7.118 16.39 17.667 0 10.55-6.682 17.604-16.39 17.604-9.709 0-16.391-7.055-16.391-17.604zm28.873 0c0-8.453-5.17-14.173-12.482-14.173-7.314 0-12.483 5.72-12.483 14.172 0 8.453 5.169 14.108 12.483 14.108 7.312 0 12.482-5.655 12.482-14.108zm14.768 6.1c.63 6.037 4.287 8.007 9.897 8.007 4.603 0 7.692-1.779 7.692-6.037 0-9.977-20.3-2.542-20.3-16.078 0-5.339 3.972-9.66 11.348-9.66 7.061 0 11.663 3.75 12.04 11.503h-3.908c-.504-5.593-3.215-8.008-8.132-8.008-5.611 0-7.565 2.988-7.565 6.228 0 9.279 20.299 2.606 20.299 15.888 0 5.974-4.539 9.66-12.041 9.66-8.258 0-12.797-4.067-13.238-11.503h3.908z"/><defs><linearGradient id="paint0_linear" x1="248.34" x2="248.34" y1=".325" y2="84.276" gradientUnits="userSpaceOnUse"><stop stop-color="#2CD6D6"/><stop offset="1" stop-color="#0F7EA9"/></linearGradient><linearGradient id="paint1_linear" x1="211.882" x2="283.846" y1="42.3" y2="42.3" gradientUnits="userSpaceOnUse"><stop stop-color="#8AC151"/><stop offset="1" stop-color="#568D1C"/></linearGradient></defs></svg>